<svg width="258" height="260" viewBox="0 0 258 260" fill="none" xmlns="http://www.w3.org/2000/svg">
<mask id="mask0_3_11" style="mask-type:alpha" maskUnits="userSpaceOnUse" x="0" y="0" width="258" height="260">
<path d="M161.5 172.5L189.5 241.5L161.5 250.5L144.5 182L161.5 172.5Z" fill="black"/>
<path d="M116 185C115.2 186.2 100.333 229.167 93 250.5L123.5 258.5L133 185H116Z" fill="black"/>
<path d="M88.5 172.5L105.5 183L60 233.5L42 212.5L88.5 172.5Z" fill="black"/>
<path d="M70 144.5L82 167L17 189L4.5 162.5L70 144.5Z" fill="black"/>
<path d="M72 117.5L7 90.5L1 122.5L70 141.5L72 117.5Z" fill="black"/>
<path d="M74.5 110.5L20 57.5L41 37L88.5 90.5L74.5 110.5Z" fill="black"/>
<path d="M112.5 76L90.5 88.5L69.5 15L98 3L112.5 76Z" fill="black"/>
<path d="M140.5 76H116L133.5 1L163 5.5L140.5 76Z" fill="black"/>
<path d="M163 90.5L145.5 77.5L196 18.5L216.5 42L163 90.5Z" fill="black"/>
<path d="M167 94.5L243 70L249.5 99.5L181.5 112.5L167 94.5Z" fill="black"/>
<path d="M181.5 137L247 166L256.5 137L181.5 117V137Z" fill="black"/>
<path d="M170.5 162.5L212 218L235.5 199L178 149.5L170.5 162.5Z" fill="black"/>
<path d="M161.5 172.5L189.5 241.5L161.5 250.5L144.5 182L161.5 172.5Z" stroke="black"/>
<path d="M116 185C115.2 186.2 100.333 229.167 93 250.5L123.5 258.5L133 185H116Z" stroke="black"/>
<path d="M88.5 172.5L105.5 183L60 233.5L42 212.5L88.5 172.5Z" stroke="black"/>
<path d="M70 144.5L82 167L17 189L4.5 162.5L70 144.5Z" stroke="black"/>
<path d="M72 117.5L7 90.5L1 122.5L70 141.5L72 117.5Z" stroke="black"/>
<path d="M74.5 110.5L20 57.5L41 37L88.5 90.5L74.5 110.5Z" stroke="black"/>
<path d="M112.5 76L90.5 88.5L69.5 15L98 3L112.5 76Z" stroke="black"/>
<path d="M140.5 76H116L133.5 1L163 5.5L140.5 76Z" stroke="black"/>
<path d="M163 90.5L145.5 77.5L196 18.5L216.5 42L163 90.5Z" stroke="black"/>
<path d="M167 94.5L243 70L249.5 99.5L181.5 112.5L167 94.5Z" stroke="black"/>
<path d="M181.5 137L247 166L256.5 137L181.5 117V137Z" stroke="black"/>
<path d="M170.5 162.5L212 218L235.5 199L178 149.5L170.5 162.5Z" stroke="black"/>
<path d="M183 130.5C183 160.239 158.237 184.5 127.5 184.5C96.7627 184.5 72 160.239 72 130.5C72 100.761 96.7627 76.5 127.5 76.5C158.237 76.5 183 100.761 183 130.5Z" stroke="black" stroke-width="7"/>
</mask>
<g mask="url(#mask0_3_11)">
<rect x="-53" y="-41" width="352" height="352" fill="url(#paint0_linear_3_11)"/>
</g>
<defs>
<linearGradient id="paint0_linear_3_11" x1="123" y1="-41" x2="123" y2="311" gradientUnits="userSpaceOnUse">
<stop stop-color="#C5C4C9"/>
<stop offset="1" stop-color="#DFE4EA"/>
</linearGradient>
</defs>
</svg>
