<svg width="1076" height="287" viewBox="0 0 1076 287" fill="none" xmlns="http://www.w3.org/2000/svg">
<mask id="mask0_3_19" style="mask-type:alpha" maskUnits="userSpaceOnUse" x="0" y="27" width="258" height="260">
<path d="M161.5 199.5L189.5 268.5L161.5 277.5L144.5 209L161.5 199.5Z" fill="black"/>
<path d="M116 212C115.2 213.2 100.333 256.167 93 277.5L123.5 285.5L133 212H116Z" fill="black"/>
<path d="M88.5 199.5L105.5 210L60 260.5L42 239.5L88.5 199.5Z" fill="black"/>
<path d="M70 171.5L82 194L17 216L4.5 189.5L70 171.5Z" fill="black"/>
<path d="M72 144.5L7 117.5L1 149.5L70 168.5L72 144.5Z" fill="black"/>
<path d="M74.5 137.5L20 84.5L41 64L88.5 117.5L74.5 137.5Z" fill="black"/>
<path d="M112.5 103L90.5 115.5L69.5 42L98 30L112.5 103Z" fill="black"/>
<path d="M140.5 103H116L133.5 28L163 32.5L140.5 103Z" fill="black"/>
<path d="M163 117.5L145.5 104.5L196 45.5L216.5 69L163 117.5Z" fill="black"/>
<path d="M167 121.5L243 97L249.5 126.5L181.5 139.5L167 121.5Z" fill="black"/>
<path d="M181.5 164L247 193L256.5 164L181.5 144V164Z" fill="black"/>
<path d="M170.5 189.5L212 245L235.5 226L178 176.5L170.5 189.5Z" fill="black"/>
<path d="M161.5 199.5L189.5 268.5L161.5 277.5L144.5 209L161.5 199.5Z" stroke="black"/>
<path d="M116 212C115.2 213.2 100.333 256.167 93 277.5L123.5 285.5L133 212H116Z" stroke="black"/>
<path d="M88.5 199.5L105.5 210L60 260.5L42 239.5L88.5 199.5Z" stroke="black"/>
<path d="M70 171.5L82 194L17 216L4.5 189.5L70 171.5Z" stroke="black"/>
<path d="M72 144.5L7 117.5L1 149.5L70 168.5L72 144.5Z" stroke="black"/>
<path d="M74.5 137.5L20 84.5L41 64L88.5 117.5L74.5 137.5Z" stroke="black"/>
<path d="M112.5 103L90.5 115.5L69.5 42L98 30L112.5 103Z" stroke="black"/>
<path d="M140.5 103H116L133.5 28L163 32.5L140.5 103Z" stroke="black"/>
<path d="M163 117.5L145.5 104.5L196 45.5L216.5 69L163 117.5Z" stroke="black"/>
<path d="M167 121.5L243 97L249.5 126.5L181.5 139.5L167 121.5Z" stroke="black"/>
<path d="M181.5 164L247 193L256.5 164L181.5 144V164Z" stroke="black"/>
<path d="M170.5 189.5L212 245L235.5 226L178 176.5L170.5 189.5Z" stroke="black"/>
<path d="M183 157.5C183 187.239 158.237 211.5 127.5 211.5C96.7627 211.5 72 187.239 72 157.5C72 127.761 96.7627 103.5 127.5 103.5C158.237 103.5 183 127.761 183 157.5Z" stroke="black" stroke-width="7"/>
</mask>
<g mask="url(#mask0_3_19)">
<rect x="-53" y="-14" width="352" height="352" fill="url(#paint0_linear_3_19)"/>
</g>
<path d="M393.32 230.76C377.22 230.76 363.343 227.31 351.69 220.41C340.037 213.357 331.067 203.62 324.78 191.2C318.493 178.627 315.35 164.137 315.35 147.73C315.35 131.323 318.493 116.833 324.78 104.26C331.067 91.6867 340.037 81.8733 351.69 74.82C363.343 67.7667 377.22 64.24 393.32 64.24C412.793 64.24 428.817 69.1467 441.39 78.96C453.963 88.7733 461.783 102.573 464.85 120.36H429.43C427.59 111.773 423.527 105.18 417.24 100.58C411.107 95.8267 402.98 93.45 392.86 93.45C383.507 93.45 375.457 95.6733 368.71 100.12C362.117 104.413 357.057 110.623 353.53 118.75C350.003 126.877 348.24 136.537 348.24 147.73C348.24 158.923 350.003 168.583 353.53 176.71C357.057 184.683 362.117 190.893 368.71 195.34C375.457 199.633 383.507 201.78 392.86 201.78C402.98 201.78 411.107 199.633 417.24 195.34C423.373 190.893 427.437 184.76 429.43 176.94H464.85C461.783 193.653 453.963 206.84 441.39 216.5C428.817 226.007 412.793 230.76 393.32 230.76ZM536.204 230.76C525.164 230.76 515.197 228.23 506.304 223.17C497.411 217.957 490.357 210.75 485.144 201.55C480.084 192.35 477.554 181.923 477.554 170.27C477.554 158.31 480.084 147.73 485.144 138.53C490.357 129.33 497.411 122.2 506.304 117.14C515.197 111.927 525.241 109.32 536.434 109.32C547.627 109.32 557.671 111.927 566.564 117.14C575.457 122.2 582.434 129.33 587.494 138.53C592.707 147.577 595.314 158.08 595.314 170.04C595.314 182 592.707 192.58 587.494 201.78C582.281 210.827 575.227 217.957 566.334 223.17C557.594 228.23 547.551 230.76 536.204 230.76ZM536.204 202.93C541.264 202.93 545.711 201.703 549.544 199.25C553.377 196.797 556.444 193.117 558.744 188.21C561.197 183.303 562.424 177.247 562.424 170.04C562.424 162.833 561.274 156.777 558.974 151.87C556.674 146.963 553.531 143.283 549.544 140.83C545.711 138.377 541.341 137.15 536.434 137.15C531.681 137.15 527.311 138.377 523.324 140.83C519.337 143.283 516.194 146.963 513.894 151.87C511.594 156.777 510.444 162.833 510.444 170.04C510.444 177.247 511.594 183.303 513.894 188.21C516.194 193.117 519.261 196.797 523.094 199.25C527.081 201.703 531.451 202.93 536.204 202.93ZM612.864 228V112.08H641.154L643.684 127.49C647.364 121.97 652.194 117.6 658.174 114.38C664.307 111.007 671.361 109.32 679.334 109.32C685.007 109.32 690.144 110.087 694.744 111.62C699.344 113.153 703.407 115.377 706.934 118.29C710.614 121.203 713.604 124.807 715.904 129.1C720.351 122.967 726.024 118.137 732.924 114.61C739.824 111.083 747.337 109.32 755.464 109.32C765.584 109.32 774.017 111.39 780.764 115.53C787.511 119.517 792.571 125.42 795.944 133.24C799.471 140.907 801.234 150.337 801.234 161.53V228H769.264V164.29C769.264 155.397 767.501 148.573 763.974 143.82C760.447 138.913 755.004 136.46 747.644 136.46C742.737 136.46 738.444 137.687 734.764 140.14C731.084 142.44 728.171 145.813 726.024 150.26C724.031 154.707 723.034 160.073 723.034 166.36V228H691.064V164.29C691.064 155.397 689.301 148.573 685.774 143.82C682.247 138.913 676.651 136.46 668.984 136.46C664.384 136.46 660.244 137.687 656.564 140.14C652.884 142.44 650.047 145.813 648.054 150.26C646.061 154.707 645.064 160.073 645.064 166.36V228H612.864ZM877.2 230.76C865.547 230.76 855.197 228.307 846.15 223.4C837.257 218.34 830.28 211.363 825.22 202.47C820.16 193.423 817.63 182.997 817.63 171.19C817.63 159.23 820.084 148.65 824.99 139.45C830.05 130.097 837.027 122.737 845.92 117.37C854.967 112.003 865.47 109.32 877.43 109.32C888.93 109.32 898.974 111.85 907.56 116.91C916.3 121.97 923.047 128.793 927.8 137.38C932.707 145.967 935.16 155.857 935.16 167.05C935.16 168.583 935.084 170.27 934.93 172.11C934.93 173.95 934.777 175.943 934.47 178.09H840.63V158.54H902.5C902.04 151.487 899.434 145.89 894.68 141.75C890.08 137.457 884.33 135.31 877.43 135.31C872.217 135.31 867.464 136.537 863.17 138.99C858.877 141.443 855.504 145.047 853.05 149.8C850.597 154.553 849.37 160.61 849.37 167.97V174.64C849.37 180.62 850.52 185.91 852.82 190.51C855.12 194.957 858.34 198.407 862.48 200.86C866.62 203.313 871.45 204.54 876.97 204.54C882.49 204.54 887.014 203.39 890.54 201.09C894.22 198.79 896.98 195.8 898.82 192.12H931.71C929.564 199.327 925.884 205.843 920.67 211.67C915.61 217.497 909.4 222.173 902.04 225.7C894.68 229.073 886.4 230.76 877.2 230.76ZM1002.92 228C994.641 228 987.357 226.697 981.071 224.09C974.937 221.483 970.184 217.19 966.811 211.21C963.437 205.23 961.751 197.103 961.751 186.83V138.99H941.741V112.08H961.751L965.201 80.11H993.951V112.08H1024.08V138.99H993.951V187.06C993.951 192.12 995.024 195.647 997.171 197.64C999.471 199.633 1003.3 200.63 1008.67 200.63H1023.85V228H1002.92Z" fill="#040308"/>
<defs>
<linearGradient id="paint0_linear_3_19" x1="123" y1="-14" x2="123" y2="338" gradientUnits="userSpaceOnUse">
<stop stop-color="#C5C4C9"/>
<stop offset="1" stop-color="#DFE4EA"/>
</linearGradient>
</defs>
</svg>
